<?xml version="1.0" encoding="utf-8"?>
<!-- Generator: Adobe Illustrator 21.1.0, SVG Export Plug-In . SVG Version: 6.00 Build 0)  -->
<svg version="1.1" id="Layer_1" xmlns="http://www.w3.org/2000/svg" xmlns:xlink="http://www.w3.org/1999/xlink" x="0px" y="0px"
	 viewBox="0 0 202 70" style="enable-background:new 0 0 202 70;" xml:space="preserve">
<style type="text/css">
	.st0{fill:#FFFFFF;}
</style>
<title>h-logo</title>
<path class="st0" d="M200.8,8.8c-1.3-3.7-4.3-6.7-8-8v50.8c5.2-1.8,8.7-6.8,8.7-12.3V13.2C201.5,11.7,201.3,10.2,200.8,8.8z"/>
<path class="st0" d="M183.4,26.3c-0.2-0.4-0.3-0.9-0.5-1.3c-1.3-2.7-3.5-4.9-6.2-6.2c-0.4-0.2-0.8-0.4-1.3-0.5v25.4
	c0,2.4-2,4.4-4.4,4.4s-4.4-2-4.4-4.4V0.9c-3.7,1.3-6.7,4.3-8,8c-0.5,1.4-0.7,2.9-0.8,4.4v26.1c0,1.5,0.3,3,0.8,4.4
	c1.3,3.7,4.3,6.7,8,8c6.8,2.4,14.3-1.2,16.7-8c0.5-1.4,0.8-2.9,0.7-4.4v-8.7c0-1.2-0.2-2.3-0.5-3.4
	C183.6,26.9,183.5,26.6,183.4,26.3z"/>
<path class="st0" d="M148.5,26.3c-2.4-6.8-9.9-10.4-16.7-8c-3.7,1.3-6.6,4.2-8,8c-0.1,0.3-0.2,0.6-0.3,0.9c-0.3,1.1-0.5,2.3-0.5,3.4
	v13.1c0,2.4-2,4.4-4.4,4.4s-4.4-2-4.4-4.4v-4.4c0-1.5-0.2-3-0.7-4.4l0,0c-1.3-3.6-4-6.4-7.5-7.8l-0.5-0.2h-0.1c-2.8-1-5.8-1-8.6,0
	h-0.1l-0.5,0.2c-0.1-0.3-0.2-0.6-0.3-0.9c-2.4-6.8-9.9-10.4-16.7-8c-3.7,1.3-6.6,4.2-8,8c-0.1,0.3-0.2,0.6-0.3,0.9
	c-0.3,1.1-0.5,2.3-0.5,3.4v13.1c0,2.4-2,4.4-4.4,4.4s-4.4-2-4.4-4.4V30.6c0-1.2-0.2-2.3-0.5-3.4c-0.1-0.3-0.2-0.6-0.3-0.9
	c-1.3-3.7-4.3-6.7-8-8v25.4c0,2.4-2,4.4-4.4,4.4s-4.4-2-4.4-4.4c0,0-0.2-15.4-0.5-16.5c-0.1-0.3-0.2-0.6-0.3-0.9
	c-2.4-6.8-9.9-10.4-16.7-8c-3.7,1.3-6.6,4.2-8,8c-0.1,0.3-0.2,0.6-0.3,0.9c-0.3,1.1-0.5,2.3-0.5,3.4v13.1c0,2.4-2,4.4-4.4,4.4
	c-2.4,0-4.4-2-4.4-4.4V0.9C6,2.2,3,5.1,1.7,8.9C1.2,10.3,1,11.7,1,13.2v26.2c0,1.5,0.3,3,0.8,4.4c1.3,3.7,4.3,6.7,8,8
	c6.8,2.4,14.3-1.2,16.7-8c0.1-0.3,0.2-0.6,0.3-0.9c0.3-1.1,0.5-2.3,0.5-3.4V26.3c0-2.4,2-4.4,4.4-4.4c2.4,0,4.4,2,4.4,4.4v13.1
	c0.1,1.5,0.4,2.9,0.8,4.4c2.4,6.8,9.9,10.4,16.7,8c1.6-0.6,3.1-1.5,4.4-2.6c5,4.4,12.5,4.4,17.4,0c5,4.4,12.5,4.4,17.4,0
	c5,4.4,12.5,4.4,17.4,0c5,4.4,12.5,4.4,17.4,0c5.4,4.8,13.7,4.4,18.5-1c1.1-1.3,2-2.8,2.6-4.4c0.1-0.3,0.2-0.6,0.3-0.9
	c0.3-1.1,0.5-2.3,0.5-3.4v-8.7c0-1.2-0.2-2.3-0.5-3.4C148.7,26.9,148.6,26.6,148.5,26.3z M88.2,43.7c0,2.4-2,4.4-4.4,4.4
	s-4.4-2-4.4-4.4V26.3c0-2.4,2-4.4,4.4-4.4s4.4,2,4.4,4.4l0,0V43.7z M105.6,39.4v4.4c0,2.4-2,4.4-4.4,4.4s-4.4-2-4.4-4.4V35
	c0-2.4,2-4.4,4.4-4.4s4.4,2,4.4,4.4l0,0V39.4z M140.5,43.7c0,2.4-2,4.4-4.4,4.4s-4.4-2-4.4-4.4V26.3c0-2.4,2-4.4,4.4-4.4
	s4.4,2,4.4,4.4l0,0V43.7z"/>
<circle class="st0" cx="179.7" cy="5.2" r="4.4"/>
<circle class="st0" cx="18.4" cy="64.8" r="4.4"/>
<circle class="st0" cx="9.7" cy="64.8" r="4.4"/>
<circle class="st0" cx="57.7" cy="5.2" r="4.4"/>
</svg>
