<svg id="Layer_1" data-name="Layer 1" xmlns="http://www.w3.org/2000/svg" viewBox="0 0 202 70"><defs><style>.cls-1{fill:#2b4f73;}</style></defs><title>h-logo</title><path class="cls-1" d="M200.79,8.84a13.11,13.11,0,0,0-8-8V51.69a13.08,13.08,0,0,0,8.72-12.33V13.2A13.05,13.05,0,0,0,200.79,8.84Z"/><path class="cls-1" d="M183.35,26.28a13,13,0,0,0-.53-1.27,13.13,13.13,0,0,0-6.17-6.17,13,13,0,0,0-1.27-.53V43.72a4.36,4.36,0,1,1-8.72,0V.87a13.24,13.24,0,0,0-8,8,13.05,13.05,0,0,0-.75,4.36V39.36a13.05,13.05,0,0,0,.75,4.36,13.24,13.24,0,0,0,8,8A13.08,13.08,0,0,0,184.1,39.36V30.64a13.09,13.09,0,0,0-.46-3.44Q183.51,26.73,183.35,26.28Z"/><path class="cls-1" d="M148.47,26.28a13.08,13.08,0,0,0-24.66,0q-.16.45-.29.92a13.09,13.09,0,0,0-.46,3.44V43.72a4.36,4.36,0,1,1-8.72,0V39.36A13.05,13.05,0,0,0,113.6,35h0a13.1,13.1,0,0,0-7.51-7.8l-.46-.17-.06,0A13.08,13.08,0,0,0,97,27l-.06,0-.46.17q-.13-.47-.29-.92a13.08,13.08,0,0,0-24.66,0q-.16.45-.29.92a13.09,13.09,0,0,0-.46,3.44V43.72a4.36,4.36,0,0,1-8.72,0V30.64a13.09,13.09,0,0,0-.46-3.44q-.13-.47-.29-.92a13.1,13.1,0,0,0-8-8V43.72a4.36,4.36,0,0,1-8.72,0s-.16-15.42-.46-16.51q-.13-.47-.29-.92a13.08,13.08,0,0,0-24.66,0q-.16.45-.29.92a13.09,13.09,0,0,0-.46,3.44V43.72a4.36,4.36,0,0,1-8.72,0V.87a13.24,13.24,0,0,0-8,8A13.05,13.05,0,0,0,1,13.2V39.36a13.05,13.05,0,0,0,.75,4.36,13.24,13.24,0,0,0,8,8,13.09,13.09,0,0,0,16.69-8q.16-.45.29-.92a13.09,13.09,0,0,0,.46-3.44V26.28a4.36,4.36,0,0,1,8.72,0V39.36a25.05,25.05,0,0,0,.75,4.36,13.07,13.07,0,0,0,21.05,5.39,13.07,13.07,0,0,0,17.44,0,13.07,13.07,0,0,0,17.44,0,13.07,13.07,0,0,0,17.44,0,13.07,13.07,0,0,0,17.44,0,13.08,13.08,0,0,0,21.05-5.39q.16-.45.29-.92a13.09,13.09,0,0,0,.46-3.44V30.64a13.09,13.09,0,0,0-.46-3.44Q148.63,26.73,148.47,26.28ZM88.19,43.72a4.36,4.36,0,1,1-8.72,0V26.28a4.36,4.36,0,1,1,8.72,0Zm17.44-4.36v4.36a4.36,4.36,0,0,1-8.72,0V35a4.36,4.36,0,0,1,8.72,0Zm34.88,4.36a4.36,4.36,0,0,1-8.72,0V26.28a4.36,4.36,0,0,1,8.72,0Z"/><circle class="cls-1" cx="179.74" cy="5.18" r="4.36"/><circle class="cls-1" cx="18.44" cy="64.82" r="4.36"/><circle class="cls-1" cx="9.72" cy="64.82" r="4.36"/><circle class="cls-1" cx="57.67" cy="5.18" r="4.36"/></svg>