<?xml version="1.0" encoding="UTF-8"?>
<svg width="163px" height="53px" viewBox="0 0 163 53" version="1.1" xmlns="http://www.w3.org/2000/svg" xmlns:xlink="http://www.w3.org/1999/xlink">
    <!-- Generator: sketchtool 52 (66869) - http://www.bohemiancoding.com/sketch -->
    <title>8266E584-BB19-4DCF-A9B3-C75970443E70</title>
    <desc>Created with sketchtool.</desc>
    <g id="Websiite" stroke="none" stroke-width="1" fill="none" fill-rule="evenodd">
        <g id="Landing-page" transform="translate(-393.000000, -872.000000)" fill-rule="nonzero">
            <g id="Group-2" transform="translate(173.000000, 242.000000)">
                <g id="Group-5" transform="translate(3.000000, 629.000000)">
                    <g id="app-store-apple-f1f919205b" transform="translate(216.000000, 0.000000)">
                        <g id="Group">
                            <path d="M151.3875,-1.0658141e-14 L10.3125,-1.0658141e-14 C9.35,-1.0658141e-14 8.525,0.1375 7.5625,0.275 C6.7375,0.4125 5.775,0.6875 4.95,1.1 C4.125,1.5125 3.4375,2.0625 2.75,2.75 C2.0625,3.4375 1.5125,4.125 1.1,4.95 C0.6875,5.775 0.4125,6.7375 0.275,7.5625 C0.1375,8.525 3.69482223e-13,9.4875 3.69482223e-13,10.3125 L3.69482223e-13,44.55 C3.69482223e-13,45.5125 0.1375,46.3375 0.275,47.3 C0.4125,48.2625 0.6875,49.0875 1.1,49.9125 C1.5125,50.875 2.0625,51.5625 2.75,52.25 C3.4375,52.9375 4.125,53.4875 4.95,53.9 C5.775,54.3125 6.6,54.5875 7.5625,54.725 C8.525,54.8625 9.35,55 10.3125,55 L154.1375,55 C155.1,55 155.925,54.8625 156.8875,54.725 C157.85,54.5875 158.675,54.3125 159.5,53.9 C160.325,53.4875 161.0125,52.9375 161.7,52.25 C162.3875,51.5625 162.9375,50.875 163.35,50.05 C163.7625,49.225 164.0375,48.4 164.175,47.4375 C164.3125,46.475 164.45,45.65 164.45,44.6875 L164.45,43.45 L164.45,13.0625 L164.45,11.55 L164.45,10.3125 C164.45,9.35 164.3125,8.525 164.175,7.5625 C164.0375,6.6 163.7625,5.775 163.35,4.95 C162.525,3.3 161.15,1.925 159.5,1.1 C158.675,0.6875 157.85,0.4125 156.8875,0.275 C155.925,0.1375 155.1,-1.02765019e-14 154.1375,-1.02765019e-14 L151.3875,-1.0658141e-14 Z" id="Shape"></path>
                            <path d="M11.55,53.7625 L10.3125,53.7625 C9.4875,53.7625 8.525,53.625 7.7,53.4875 C6.875,53.35 6.1875,53.075 5.3625,52.8 C4.675,52.3875 3.9875,51.975 3.4375,51.425 C2.8875,50.875 2.3375,50.1875 2.0625,49.5 C1.65,48.8125 1.5125,47.9875 1.375,47.1625 C1.2375,46.3375 1.1,45.5125 1.1,44.55 L1.1,11.55 L1.1,10.3125 C1.1,9.4875 1.2375,8.525 1.375,7.7 C1.5125,7.0125 1.7875,6.1875 2.2,5.5 C2.6125,4.8125 3.025,4.125 3.575,3.575 C4.125,3.025 4.8125,2.6125 5.5,2.2 C6.1875,1.7875 7.0125,1.65 7.8375,1.5125 C8.6625,1.375 9.4875,1.2375 10.45,1.2375 L154.275,1.2375 C155.1,1.2375 155.925,1.375 156.8875,1.5125 C157.7125,1.65 158.4,1.925 159.225,2.2 C160.6,2.8875 161.8375,4.125 162.525,5.5 C162.9375,6.1875 163.075,7.0125 163.2125,7.7 C163.35,8.525 163.4875,9.4875 163.4875,10.3125 L163.4875,44.55 C163.4875,45.375 163.35,46.2 163.2125,47.1625 C163.075,47.9875 162.8,48.675 162.525,49.5 C162.1125,50.1875 161.7,50.875 161.15,51.425 C160.6,51.975 159.9125,52.525 159.225,52.8 C158.5375,53.2125 157.7125,53.4875 156.8875,53.4875 C156.0625,53.625 155.2375,53.7625 154.275,53.7625 L11.55,53.7625 Z" id="Shape" fill="#FFFFFF"></path>
                            <path d="M34.1,27.9125 C34.1,25.575 35.3375,23.375 37.4,22.1375 C36.1625,20.35 34.1,19.25 31.9,19.1125 C29.5625,18.8375 27.3625,20.4875 26.125,20.4875 C24.8875,20.4875 23.1,19.1125 21.175,19.1125 C18.5625,19.25 16.225,20.625 14.9875,22.825 C12.375,27.3625 14.3,34.2375 16.9125,37.95 C18.15,39.7375 19.6625,41.8 21.5875,41.8 C23.5125,41.6625 24.2,40.5625 26.5375,40.5625 C28.875,40.5625 29.425,41.8 31.4875,41.8 C33.55,41.8 34.7875,40.0125 36.025,38.0875 C36.9875,36.85 37.675,35.3375 38.0875,33.825 C35.6125,33 34.1,30.525 34.1,27.9125 Z M30.25,16.775 C31.35,15.4 31.9,13.75 31.7625,11.9625 C30.1125,12.1 28.4625,12.925 27.3625,14.3 C26.2625,15.5375 25.7125,17.1875 25.85,18.975 C27.6375,18.975 29.15,18.15 30.25,16.775 Z M58.1625,37.2625 L51.7,37.2625 L50.1875,41.9375 L47.4375,41.9375 L53.625,24.8875 L56.375,24.8875 L62.5625,41.9375 L59.8125,41.9375 L58.1625,37.2625 Z M52.3875,35.2 L57.6125,35.2 L55,27.6375 L54.8625,27.6375 L52.3875,35.2 Z M75.9,35.75 C75.9,39.6 73.8375,42.075 70.675,42.075 C69.025,42.2125 67.5125,41.25 66.825,39.875 L66.825,46.0625 L64.2125,46.0625 L64.2125,29.5625 L66.6875,29.5625 L66.6875,31.625 C67.5125,30.25 69.025,29.425 70.675,29.425 C73.7,29.2875 75.9,31.9 75.9,35.75 Z M73.15,35.75 C73.15,33.275 71.9125,31.625 69.85,31.625 C67.925,31.625 66.55,33.275 66.55,35.75 C66.55,38.225 67.925,39.875 69.85,39.875 C71.9125,39.875 73.15,38.225 73.15,35.75 Z M89.5125,35.75 C89.5125,39.6 87.45,42.075 84.2875,42.075 C82.6375,42.2125 81.125,41.25 80.4375,39.875 L80.4375,46.0625 L77.825,46.0625 L77.825,29.5625 L80.3,29.5625 L80.3,31.625 C81.125,30.25 82.6375,29.425 84.2875,29.425 C87.45,29.2875 89.5125,31.9 89.5125,35.75 Z M86.9,35.75 C86.9,33.275 85.6625,31.625 83.6,31.625 C81.675,31.625 80.3,33.275 80.3,35.75 C80.3,38.225 81.675,39.875 83.6,39.875 C85.6625,39.875 86.9,38.225 86.9,35.75 Z M98.5875,37.125 C98.725,38.775 100.375,39.875 102.7125,39.875 C104.9125,39.875 106.425,38.775 106.425,37.2625 C106.425,35.8875 105.4625,35.2 103.2625,34.65 L101.0625,34.1 C97.9,33.4125 96.525,31.9 96.525,29.5625 C96.525,26.675 99.1375,24.6125 102.7125,24.6125 C106.2875,24.6125 108.7625,26.675 108.9,29.5625 L106.2875,29.5625 C106.15,27.9125 104.775,26.8125 102.7125,26.8125 C100.65,26.8125 99.275,27.9125 99.275,29.425 C99.275,30.6625 100.2375,31.35 102.4375,31.9 L104.3625,32.3125 C107.8,33.1375 109.3125,34.5125 109.3125,36.9875 C109.3125,40.15 106.8375,42.2125 102.7125,42.2125 C98.8625,42.2125 96.3875,40.2875 96.25,37.125 L98.5875,37.125 Z M114.5375,26.5375 L114.5375,29.425 L116.875,29.425 L116.875,31.4875 L114.5375,31.4875 L114.5375,38.3625 C114.5375,39.4625 114.95,39.875 116.05,39.875 L116.875,39.875 L116.875,41.9375 C116.4625,42.075 115.9125,42.075 115.5,42.075 C113.025,42.075 112.0625,41.1125 112.0625,38.775 L112.0625,31.625 L110.275,31.625 L110.275,29.5625 L112.0625,29.5625 L112.0625,26.675 L114.5375,26.675 L114.5375,26.5375 Z M118.3875,35.75 C118.3875,31.9 120.725,29.425 124.3,29.425 C127.875,29.425 130.2125,31.9 130.2125,35.75 C130.2125,39.7375 127.875,42.075 124.3,42.075 C120.5875,42.075 118.3875,39.6 118.3875,35.75 Z M127.6,35.75 C127.6,33 126.3625,31.4875 124.3,31.4875 C122.2375,31.4875 121,33 121,35.75 C121,38.5 122.2375,40.0125 124.3,40.0125 C126.3625,40.0125 127.6,38.3625 127.6,35.75 Z M132.275,29.425 L134.75,29.425 L134.75,31.625 C135.025,30.25 136.4,29.2875 137.775,29.425 C138.05,29.425 138.325,29.425 138.6,29.5625 L138.6,31.9 C138.1875,31.7625 137.775,31.7625 137.5,31.7625 C136.125,31.7625 134.8875,32.8625 134.8875,34.2375 L134.8875,42.075 L132.275,42.075 L132.275,29.425 Z M150.425,38.225 C150.15,40.425 147.95,42.075 145.0625,42.075 C141.4875,42.075 139.15,39.6 139.15,35.75 C139.15,31.9 141.35,29.2875 144.925,29.2875 C148.3625,29.2875 150.5625,31.625 150.5625,35.475 L150.5625,36.3 L141.7625,36.3 L141.7625,36.4375 C141.625,38.225 142.8625,39.7375 144.65,40.0125 L145.0625,40.0125 C146.3,40.15 147.5375,39.4625 147.95,38.225 L150.425,38.225 Z M141.7625,34.5125 L147.95,34.5125 C148.0875,32.8625 146.7125,31.4875 145.0625,31.35 L144.7875,31.35 C143.1375,31.35 141.7625,32.725 141.7625,34.5125 Z" id="Shape" fill="#043669"></path>
                            <path d="M51.975,11.9625 C54.0375,11.825 55.6875,13.3375 55.825,15.2625 L55.825,15.95 C55.825,18.5625 54.45,20.075 51.975,20.075 L48.95,20.075 L48.95,11.825 L51.975,11.9625 Z M50.325,19.1125 L51.8375,19.1125 C53.2125,19.25 54.45,18.15 54.5875,16.6375 L54.5875,16.0875 C54.725,14.7125 53.7625,13.3375 52.3875,13.2 L50.325,13.2 L50.325,19.1125 Z M57.3375,17.05 C57.2,15.4 58.4375,14.025 59.95,13.8875 C61.6,13.75 62.975,14.9875 63.1125,16.5 L63.1125,17.05 C63.25,18.7 62.15,20.075 60.5,20.2125 C58.85,20.35 57.475,19.25 57.3375,17.6 L57.3375,17.05 Z M61.875,17.05 C61.875,15.675 61.325,14.9875 60.225,14.9875 C59.125,14.9875 58.575,15.8125 58.575,17.05 C58.575,18.425 59.125,19.25 60.225,19.25 C61.325,19.25 61.875,18.425 61.875,17.05 Z M70.95,20.2125 L69.7125,20.2125 L68.475,15.675 L68.3375,15.675 L67.1,20.2125 L65.8625,20.2125 L64.2125,14.025 L65.45,14.025 L66.55,18.7 L66.6875,18.7 L67.925,14.025 L69.1625,14.025 L70.4,18.7 L70.5375,18.7 L71.6375,14.025 L72.875,14.025 L70.95,20.2125 Z M74.1125,14.025 L75.35,14.025 L75.35,14.9875 L75.4875,14.9875 C75.7625,14.3 76.5875,13.8875 77.275,13.8875 C78.375,13.75 79.3375,14.575 79.475,15.8125 L79.475,20.2125 L78.2375,20.2125 L78.2375,16.5 C78.2375,15.5375 77.825,14.9875 76.8625,14.9875 C76.0375,14.9875 75.35,15.5375 75.35,16.3625 L75.35,20.2125 L74.1125,20.2125 L74.1125,14.025 Z M81.2625,11.55 L82.5,11.55 L82.5,20.2125 L81.2625,20.2125 L81.2625,11.55 Z M84.15,17.05 C84.0125,15.4 85.1125,14.025 86.7625,13.8875 C88.4125,13.75 89.7875,14.85 89.925,16.5 L89.925,17.05 C90.0625,18.7 88.9625,20.075 87.3125,20.2125 C85.6625,20.35 84.2875,19.25 84.15,17.6 L84.15,17.05 Z M88.825,17.05 C88.825,15.675 88.275,14.9875 87.175,14.9875 C86.075,14.9875 85.525,15.8125 85.525,17.05 C85.525,18.425 86.075,19.25 87.175,19.25 C88.1375,19.25 88.825,18.425 88.825,17.05 Z M91.3,18.425 C91.3,17.325 92.125,16.6375 93.6375,16.6375 L95.2875,16.5 L95.2875,15.95 C95.2875,15.2625 94.875,14.9875 94.05,14.9875 C93.3625,14.9875 92.95,15.2625 92.8125,15.675 L91.575,15.675 C91.7125,14.575 92.675,13.8875 94.05,13.8875 C95.5625,13.8875 96.525,14.7125 96.525,15.95 L96.525,20.2125 L95.2875,20.2125 L95.2875,19.3875 L95.15,19.3875 C94.7375,20.075 94.05,20.35 93.225,20.35 C92.2625,20.4875 91.3,19.6625 91.1625,18.7 C91.3,18.5625 91.3,18.5625 91.3,18.425 Z M95.2875,17.875 L95.2875,17.325 L93.775,17.4625 C92.95,17.4625 92.5375,17.875 92.5375,18.2875 C92.5375,18.8375 93.0875,19.1125 93.6375,19.1125 C94.4625,19.3875 95.15,18.8375 95.2875,17.875 C95.2875,18.0125 95.2875,18.0125 95.2875,17.875 Z M98.0375,17.05 C98.0375,15.125 99,13.8875 100.65,13.8875 C101.475,13.8875 102.1625,14.3 102.575,14.9875 L102.7125,14.9875 L102.7125,11.55 L103.95,11.55 L103.95,20.2125 L102.7125,20.2125 L102.7125,19.25 L102.575,19.25 C102.1625,19.9375 101.475,20.35 100.65,20.35 C99.1375,20.35 98.0375,19.1125 98.0375,17.05 Z M99.4125,17.05 C99.4125,18.425 99.9625,19.1125 101.0625,19.1125 C102.1625,19.1125 102.7125,18.2875 102.7125,17.05 C102.7125,15.8125 102.025,14.9875 101.0625,14.9875 C99.9625,14.9875 99.4125,15.8125 99.4125,17.05 Z M108.9,17.05 C108.7625,15.4 109.8625,14.025 111.5125,13.8875 C113.1625,13.75 114.5375,14.85 114.675,16.5 L114.675,17.05 C114.8125,18.7 113.7125,20.075 112.0625,20.2125 C110.4125,20.35 109.0375,19.25 108.9,17.6 L108.9,17.05 Z M113.575,17.05 C113.575,15.675 113.025,14.9875 111.925,14.9875 C110.825,14.9875 110.275,15.8125 110.275,17.05 C110.275,18.425 110.825,19.25 111.925,19.25 C112.8875,19.25 113.575,18.425 113.575,17.05 Z M116.4625,14.025 L117.7,14.025 L117.7,14.9875 L117.8375,14.9875 C118.1125,14.3 118.9375,13.8875 119.625,13.8875 C120.725,13.75 121.6875,14.575 121.825,15.8125 L121.825,20.2125 L120.5875,20.2125 L120.5875,16.5 C120.5875,15.5375 120.175,14.9875 119.2125,14.9875 C118.3875,14.9875 117.7,15.5375 117.7,16.3625 L117.7,20.2125 L116.4625,20.2125 L116.4625,14.025 Z M128.5625,12.5125 L128.5625,14.025 L129.9375,14.025 L129.9375,15.125 L128.5625,15.125 L128.5625,18.2875 C128.5625,18.975 128.8375,19.25 129.3875,19.25 L129.8,19.25 L129.8,20.2125 L129.1125,20.2125 C127.7375,20.2125 127.1875,19.8 127.1875,18.5625 L127.1875,15.125 L126.225,15.125 L126.225,14.1625 L127.1875,14.1625 L127.1875,12.5125 L128.5625,12.5125 Z M131.5875,11.55 L132.825,11.55 L132.825,14.9875 L132.9625,14.9875 C133.2375,14.3 134.0625,13.75 134.8875,13.8875 C135.9875,13.8875 136.95,14.7125 137.0875,15.8125 L137.0875,20.2125 L135.85,20.2125 L135.85,16.5 C135.85,15.5375 135.4375,14.9875 134.475,14.9875 C133.65,14.9875 132.9625,15.5375 132.9625,16.3625 L132.9625,20.2125 L131.725,20.2125 L131.725,11.55 L131.5875,11.55 Z M144.1,18.5625 C143.825,19.6625 142.5875,20.4875 141.4875,20.35 C139.975,20.35 138.6,19.1125 138.6,17.6 L138.6,17.1875 C138.325,15.675 139.425,14.1625 141.075,14.025 L141.4875,14.025 C143.275,14.025 144.2375,15.2625 144.2375,17.1875 L144.2375,17.6 L139.8375,17.6 L139.8375,17.7375 C139.7,18.7 140.3875,19.3875 141.35,19.525 L141.4875,19.525 C142.0375,19.6625 142.725,19.25 143,18.8375 L144.1,18.8375 L144.1,18.5625 Z M139.7,16.5 L142.8625,16.5 C142.8625,15.675 142.3125,14.9875 141.4875,14.85 L141.35,14.85 C140.525,14.9875 139.7,15.675 139.7,16.5 Z" id="Shape" fill="#043669"></path>
                        </g>
                    </g>
                </g>
            </g>
        </g>
    </g>
</svg>