<?xml version="1.0" encoding="UTF-8"?>
<svg width="186px" height="55px" viewBox="0 0 186 55" version="1.1" xmlns="http://www.w3.org/2000/svg" xmlns:xlink="http://www.w3.org/1999/xlink">
    <!-- Generator: sketchtool 52 (66869) - http://www.bohemiancoding.com/sketch -->
    <title>DDC027CE-461C-4542-8962-ADB2A8B5201A</title>
    <desc>Created with sketchtool.</desc>
    <defs>
        <linearGradient x1="90.7307692%" y1="4.82%" x2="-38.3692308%" y2="71.948%" id="linearGradient-1">
            <stop stop-color="#00A0FF" offset="0%"></stop>
            <stop stop-color="#00A1FF" offset="0.7%"></stop>
            <stop stop-color="#00BEFF" offset="26%"></stop>
            <stop stop-color="#00D2FF" offset="51.2%"></stop>
            <stop stop-color="#00DFFF" offset="76%"></stop>
            <stop stop-color="#00E3FF" offset="100%"></stop>
        </linearGradient>
        <linearGradient x1="107.724138%" y1="50%" x2="-130.669951%" y2="50%" id="linearGradient-2">
            <stop stop-color="#FFE000" offset="0%"></stop>
            <stop stop-color="#FFBD00" offset="40.9%"></stop>
            <stop stop-color="#FFA500" offset="77.5%"></stop>
            <stop stop-color="#FF9C00" offset="100%"></stop>
        </linearGradient>
        <linearGradient x1="86.3233533%" y1="17.7289229%" x2="-49.9520958%" y2="194.30434%" id="linearGradient-3">
            <stop stop-color="#FF3A44" offset="0%"></stop>
            <stop stop-color="#C31162" offset="100%"></stop>
        </linearGradient>
        <linearGradient x1="-18.7964072%" y1="-54.2475923%" x2="42.0598802%" y2="24.9730607%" id="linearGradient-4">
            <stop stop-color="#32A071" offset="0%"></stop>
            <stop stop-color="#2DA771" offset="6.9%"></stop>
            <stop stop-color="#15CF74" offset="47.6%"></stop>
            <stop stop-color="#06E775" offset="80.1%"></stop>
            <stop stop-color="#00F076" offset="100%"></stop>
        </linearGradient>
    </defs>
    <g id="Websiite" stroke="none" stroke-width="1" fill="none" fill-rule="evenodd">
        <g id="Landing-page" transform="translate(-176.000000, -871.000000)" fill-rule="nonzero">
            <g id="Group-2" transform="translate(173.000000, 242.000000)">
                <g id="Group-5" transform="translate(3.000000, 629.000000)">
                    <g id="app-store-google-4d63c31a3e">
                        <path d="M179.111111,55 L6.88888889,55 C3.03111111,55 0,51.975 0,48.125 L0,6.875 C0,3.025 3.03111111,0 6.88888889,0 L179.111111,0 C182.968889,0 186,3.025 186,6.875 L186,48.125 C186,51.975 182.968889,55 179.111111,55 Z" id="Shape" fill="#FFFFFF"></path>
                        <path d="M179.111111,1.1 C182.28,1.1 184.897778,3.7125 184.897778,6.875 L184.897778,48.125 C184.897778,51.2875 182.28,53.9 179.111111,53.9 L6.88888889,53.9 C3.72,53.9 1.10222222,51.2875 1.10222222,48.125 L1.10222222,6.875 C1.10222222,3.7125 3.72,1.1 6.88888889,1.1 L179.111111,1.1 Z M179.111111,0 L6.88888889,0 C3.03111111,0 0,3.1625 0,6.875 L0,48.125 C0,51.975 3.03111111,55 6.88888889,55 L179.111111,55 C182.968889,55 186,51.975 186,48.125 L186,6.875 C186,3.1625 182.968889,0 179.111111,0 Z" id="Shape"></path>
                        <path d="M65.3066667,14.025 C65.3066667,15.125 65.0311111,16.0875 64.3422222,16.775 C63.5155556,17.6 62.5511111,18.0125 61.3111111,18.0125 C60.0711111,18.0125 59.1066667,17.6 58.28,16.775 C57.4533333,15.95 57.04,14.9875 57.04,13.75 C57.04,12.5125 57.4533333,11.55 58.28,10.725 C59.1066667,9.9 60.0711111,9.4875 61.3111111,9.4875 C61.8622222,9.4875 62.4133333,9.625 62.9644444,9.9 C63.5155556,10.175 63.9288889,10.45 64.2044444,10.8625 L63.5155556,11.55 C62.9644444,10.8625 62.2755556,10.5875 61.3111111,10.5875 C60.4844444,10.5875 59.6577778,10.8625 59.1066667,11.55 C58.4177778,12.1 58.1422222,12.925 58.1422222,13.8875 C58.1422222,14.85 58.4177778,15.675 59.1066667,16.225 C59.7955556,16.775 60.4844444,17.1875 61.3111111,17.1875 C62.2755556,17.1875 62.9644444,16.9125 63.6533333,16.225 C64.0666667,15.8125 64.3422222,15.2625 64.3422222,14.575 L61.3111111,14.575 L61.3111111,13.475 L65.3066667,13.475 L65.3066667,14.025 Z M71.6444444,10.5875 L67.9244444,10.5875 L67.9244444,13.2 L71.3688889,13.2 L71.3688889,14.1625 L67.9244444,14.1625 L67.9244444,16.775 L71.6444444,16.775 L71.6444444,17.875 L66.8222222,17.875 L66.8222222,9.625 L71.6444444,9.625 L71.6444444,10.5875 Z M76.1911111,17.875 L75.0888889,17.875 L75.0888889,10.5875 L72.7466667,10.5875 L72.7466667,9.625 L78.5333333,9.625 L78.5333333,10.5875 L76.1911111,10.5875 L76.1911111,17.875 Z M82.5288889,17.875 L82.5288889,9.625 L83.6311111,9.625 L83.6311111,17.875 L82.5288889,17.875 Z M88.3155556,17.875 L87.2133333,17.875 L87.2133333,10.5875 L84.8711111,10.5875 L84.8711111,9.625 L90.52,9.625 L90.52,10.5875 L88.1777778,10.5875 L88.3155556,17.875 Z M101.404444,16.775 C100.577778,17.6 99.6133333,18.0125 98.3733333,18.0125 C97.1333333,18.0125 96.1688889,17.6 95.3422222,16.775 C94.5155556,15.95 94.1022222,14.9875 94.1022222,13.75 C94.1022222,12.5125 94.5155556,11.55 95.3422222,10.725 C96.1688889,9.9 97.1333333,9.4875 98.3733333,9.4875 C99.6133333,9.4875 100.577778,9.9 101.404444,10.725 C102.231111,11.55 102.644444,12.5125 102.644444,13.75 C102.644444,14.9875 102.231111,15.95 101.404444,16.775 Z M96.1688889,16.0875 C96.72,16.6375 97.5466667,17.05 98.3733333,17.05 C99.2,17.05 100.026667,16.775 100.577778,16.0875 C101.128889,15.5375 101.542222,14.7125 101.542222,13.75 C101.542222,12.7875 101.266667,11.9625 100.577778,11.4125 C100.026667,10.8625 99.2,10.45 98.3733333,10.45 C97.5466667,10.45 96.72,10.725 96.1688889,11.4125 C95.6177778,11.9625 95.2044444,12.7875 95.2044444,13.75 C95.2044444,14.7125 95.48,15.5375 96.1688889,16.0875 Z M104.16,17.875 L104.16,9.625 L105.4,9.625 L109.395556,16.0875 L109.395556,9.625 L110.497778,9.625 L110.497778,17.875 L109.395556,17.875 L105.124444,11.1375 L105.124444,17.875 L104.16,17.875 Z" id="Shape" stroke="#FFFFFF" stroke-width="0.2" fill="#043669"></path>
                        <path d="M93.8266667,29.975 C90.52,29.975 87.9022222,32.45 87.9022222,35.8875 C87.9022222,39.1875 90.52,41.8 93.8266667,41.8 C97.1333333,41.8 99.7511111,39.325 99.7511111,35.8875 C99.7511111,32.3125 97.1333333,29.975 93.8266667,29.975 Z M93.8266667,39.325 C92.0355556,39.325 90.52,37.8125 90.52,35.75 C90.52,33.6875 92.0355556,32.175 93.8266667,32.175 C95.6177778,32.175 97.1333333,33.55 97.1333333,35.75 C97.1333333,37.8125 95.6177778,39.325 93.8266667,39.325 Z M81.0133333,29.975 C77.7066667,29.975 75.0888889,32.45 75.0888889,35.8875 C75.0888889,39.1875 77.7066667,41.8 81.0133333,41.8 C84.32,41.8 86.9377778,39.325 86.9377778,35.8875 C86.9377778,32.3125 84.32,29.975 81.0133333,29.975 Z M81.0133333,39.325 C79.2222222,39.325 77.7066667,37.8125 77.7066667,35.75 C77.7066667,33.6875 79.2222222,32.175 81.0133333,32.175 C82.8044444,32.175 84.32,33.55 84.32,35.75 C84.32,37.8125 82.8044444,39.325 81.0133333,39.325 Z M65.72,31.7625 L65.72,34.2375 L71.6444444,34.2375 C71.5066667,35.6125 70.9555556,36.7125 70.2666667,37.4 C69.44,38.225 68.0622222,39.1875 65.72,39.1875 C62,39.1875 59.2444444,36.3 59.2444444,32.5875 C59.2444444,28.875 62.1377778,25.9875 65.72,25.9875 C67.6488889,25.9875 69.1644444,26.8125 70.2666667,27.775 L72.0577778,25.9875 C70.5422222,24.6125 68.6133333,23.5125 65.8577778,23.5125 C60.8977778,23.5125 56.6266667,27.6375 56.6266667,32.5875 C56.6266667,37.5375 60.8977778,41.6625 65.8577778,41.6625 C68.6133333,41.6625 70.5422222,40.8375 72.1955556,39.05 C73.8488889,37.4 74.4,35.0625 74.4,33.275 C74.4,32.725 74.4,32.175 74.2622222,31.7625 L65.72,31.7625 Z M128.271111,33.6875 C127.72,32.3125 126.342222,29.975 123.311111,29.975 C120.28,29.975 117.8,32.3125 117.8,35.8875 C117.8,39.1875 120.28,41.8 123.586667,41.8 C126.204444,41.8 127.857778,40.15 128.408889,39.1875 L126.48,37.8125 C125.791111,38.775 124.964444,39.4625 123.586667,39.4625 C122.208889,39.4625 121.382222,38.9125 120.693333,37.675 L128.546667,34.375 L128.271111,33.6875 Z M120.28,35.6125 C120.28,33.4125 122.071111,32.175 123.311111,32.175 C124.275556,32.175 125.24,32.725 125.515556,33.4125 L120.28,35.6125 Z M113.804444,41.25 L116.422222,41.25 L116.422222,24.0625 L113.804444,24.0625 L113.804444,41.25 Z M109.671111,31.2125 C108.982222,30.525 107.88,29.8375 106.502222,29.8375 C103.608889,29.8375 100.853333,32.45 100.853333,35.75 C100.853333,39.05 103.471111,41.525 106.502222,41.525 C107.88,41.525 108.982222,40.8375 109.533333,40.15 L109.671111,40.15 L109.671111,40.975 C109.671111,43.175 108.431111,44.4125 106.502222,44.4125 C104.986667,44.4125 103.884444,43.3125 103.608889,42.35 L101.404444,43.3125 C102.093333,44.825 103.746667,46.75 106.64,46.75 C109.671111,46.75 112.151111,44.9625 112.151111,40.7 L112.151111,30.25 L109.671111,30.25 L109.671111,31.2125 Z M106.64,39.325 C104.848889,39.325 103.333333,37.8125 103.333333,35.75 C103.333333,33.6875 104.848889,32.175 106.64,32.175 C108.431111,32.175 109.808889,33.6875 109.808889,35.75 C109.808889,37.8125 108.431111,39.325 106.64,39.325 Z M140.257778,24.0625 L134.057778,24.0625 L134.057778,41.25 L136.675556,41.25 L136.675556,34.7875 L140.257778,34.7875 C143.151111,34.7875 145.906667,32.725 145.906667,29.425 C145.906667,26.125 143.151111,24.0625 140.257778,24.0625 Z M140.395556,32.3125 L136.675556,32.3125 L136.675556,26.4 L140.395556,26.4 C142.324444,26.4 143.426667,28.05 143.426667,29.2875 C143.288889,30.8 142.186667,32.3125 140.395556,32.3125 Z M156.24,29.8375 C154.311111,29.8375 152.382222,30.6625 151.693333,32.45 L154.035556,33.4125 C154.586667,32.45 155.413333,32.175 156.377778,32.175 C157.755556,32.175 158.995556,33 159.133333,34.375 L159.133333,34.5125 C158.72,34.2375 157.617778,33.825 156.515556,33.825 C154.035556,33.825 151.555556,35.2 151.555556,37.675 C151.555556,40.0125 153.622222,41.525 155.826667,41.525 C157.617778,41.525 158.444444,40.7 159.133333,39.875 L159.271111,39.875 L159.271111,41.25 L161.751111,41.25 L161.751111,34.65 C161.475556,31.625 159.133333,29.8375 156.24,29.8375 Z M155.964444,39.325 C155.137778,39.325 153.897778,38.9125 153.897778,37.8125 C153.897778,36.4375 155.413333,36.025 156.653333,36.025 C157.755556,36.025 158.306667,36.3 158.995556,36.575 C158.72,38.225 157.342222,39.325 155.964444,39.325 Z M170.431111,30.25 L167.537778,37.675 L167.4,37.675 L164.368889,30.25 L161.613333,30.25 L166.16,40.7 L163.542222,46.475 L166.16,46.475 L173.186667,30.25 L170.431111,30.25 Z M147.284444,41.25 L149.902222,41.25 L149.902222,24.0625 L147.284444,24.0625 L147.284444,41.25 Z" id="Shape" fill="#043669"></path>
                        <path d="M14.3288889,10.3125 C13.9155556,10.725 13.7777778,11.4125 13.7777778,12.2375 L13.7777778,42.625 C13.7777778,43.45 14.0533333,44.1375 14.4666667,44.55 L14.6044444,44.6875 L31.6888889,27.6375 L31.6888889,27.3625 L14.3288889,10.3125 Z" id="Shape" fill="url(#linearGradient-1)"></path>
                        <path d="M37.2,33.4125 L31.5511111,27.775 L31.5511111,27.3625 L37.2,21.725 L37.3377778,21.8625 L44.0888889,25.7125 C46.0177778,26.8125 46.0177778,28.6 44.0888889,29.7 L37.2,33.4125 Z" id="Shape" fill="url(#linearGradient-2)"></path>
                        <path d="M37.3377778,33.275 L31.5511111,27.5 L14.3288889,44.6875 C15.0177778,45.375 15.9822222,45.375 17.2222222,44.825 L37.3377778,33.275" id="Shape" fill="url(#linearGradient-3)"></path>
                        <path d="M37.3377778,21.725 L17.2222222,10.3125 C15.9822222,9.625 15.0177778,9.7625 14.3288889,10.45 L31.5511111,27.5 L37.3377778,21.725 Z" id="Shape" fill="url(#linearGradient-4)"></path>
                        <path d="M37.2,33.1375 L17.2222222,44.4125 C16.12,45.1 15.1555556,44.9625 14.4666667,44.4125 L14.3288889,44.55 L14.4666667,44.6875 C15.1555556,45.2375 16.12,45.375 17.2222222,44.6875 L37.2,33.1375 Z" id="Shape" fill="#000000" opacity="0.2"></path>
                        <path d="M14.3288889,44.4125 C13.9155556,44 13.7777778,43.3125 13.7777778,42.4875 L13.7777778,42.625 C13.7777778,43.45 14.0533333,44.1375 14.4666667,44.55 L14.4666667,44.4125 L14.3288889,44.4125 Z M44.0888889,29.2875 L37.2,33.1375 L37.3377778,33.275 L44.0888889,29.425 C45.0533333,28.875 45.4666667,28.1875 45.4666667,27.5 C45.4666667,28.1875 44.9155556,28.7375 44.0888889,29.2875 Z" id="Shape" fill="#000000" opacity="0.12"></path>
                        <path d="M17.2222222,10.45 L44.0888889,25.7125 C44.9155556,26.2625 45.4666667,26.8125 45.4666667,27.5 C45.4666667,26.8125 45.0533333,26.125 44.0888889,25.575 L17.2222222,10.45 C15.2933333,9.2125 13.7777778,10.0375 13.7777778,12.2375 L13.7777778,12.375 C13.7777778,10.3125 15.2933333,9.35 17.2222222,10.45 Z" id="Shape" fill="#FFFFFF" opacity="0.25"></path>
                    </g>
                </g>
            </g>
        </g>
    </g>
</svg>