<?xml version="1.0" encoding="UTF-8"?>
<svg width="100px" height="100px" viewBox="0 0 100 100" version="1.1" xmlns="http://www.w3.org/2000/svg" xmlns:xlink="http://www.w3.org/1999/xlink">
    <!-- Generator: sketchtool 52 (66869) - http://www.bohemiancoding.com/sketch -->
    <title>D24C7395-E654-4837-A7E2-9AE276565417</title>
    <desc>Created with sketchtool.</desc>
    <g id="Websiite" stroke="none" stroke-width="1" fill="none" fill-rule="evenodd">
        <g id="Landing-page" transform="translate(-1376.000000, -1809.000000)">
            <g id="Group-4" transform="translate(1376.000000, 1809.000000)">
                <g id="Group-3">
                    <g id="Group-17">
                        <path d="M17.9471964,-7.25088215e-16 L82.0528036,4.27780189e-15 C88.2934348,3.13141654e-15 90.5564384,0.649779278 92.8379199,1.86992893 C95.1194014,3.09007857 96.9099214,4.88059859 98.1300711,7.16208008 C99.3502207,9.44356156 100,11.7065652 100,17.9471964 L100,82.0528036 C100,88.2934348 99.3502207,90.5564384 98.1300711,92.8379199 C96.9099214,95.1194014 95.1194014,96.9099214 92.8379199,98.1300711 C90.5564384,99.3502207 88.2934348,100 82.0528036,100 L17.9471964,100 C11.7065652,100 9.44356156,99.3502207 7.16208008,98.1300711 C4.88059859,96.9099214 3.09007857,95.1194014 1.86992893,92.8379199 C0.649779278,90.5564384 2.80864756e-16,88.2934348 -4.83392144e-16,82.0528036 L4.03610582e-15,17.9471964 C3.27184892e-15,11.7065652 0.649779278,9.44356156 1.86992893,7.16208008 C3.09007857,4.88059859 4.88059859,3.09007857 7.16208008,1.86992893 C9.44356156,0.649779278 11.7065652,4.21297134e-16 17.9471964,-7.25088215e-16 Z" id="Rectangle" fill="#9FCE6F"></path>
                        <g id="credit-card-(9)" transform="translate(25.000000, 30.000000)" fill="#FFFFFF">
                            <path d="M48.7757582,1.22380477 C47.9598706,0.407904518 46.9790724,0 45.8334549,0 L4.16663626,0 C3.02083637,0 2.04022066,0.407813305 1.22378579,1.22380477 C0.407806982,2.03988744 0,3.02051836 0,4.16642723 L0,35.8331167 C0,36.9792992 0.407806982,37.9600213 1.22378579,38.7760128 C2.04022066,39.5920043 3.02083637,40 4.16663626,40 L45.8334549,40 C46.9790724,40 47.9597793,39.5920043 48.7757582,38.7760128 C49.5916457,37.9601126 50,36.9793904 50,35.8331167 L50,4.16642723 C50,3.02051836 49.5916457,2.03988744 48.7757582,1.22380477 Z M46.6663079,35.8337552 C46.6663079,36.059781 46.5839438,36.2545207 46.4190333,36.4199811 C46.254214,36.5841645 46.0588388,36.6665298 45.8334549,36.6665298 L4.16663626,36.6665298 C3.94107002,36.6665298 3.74569481,36.5841645 3.58078427,36.4193426 C3.41596495,36.2539735 3.33341846,36.0591425 3.33341846,35.8331167 L3.33341846,20 L46.6663991,20 L46.6663991,35.8337552 L46.6663079,35.8337552 Z M46.6663079,9.99949833 L3.33332725,9.99949833 L3.33332725,4.16606238 C3.33332725,3.94040143 3.4156001,3.74547926 3.58069306,3.58020131 C3.74569481,3.41574428 3.94107002,3.33319651 4.16654505,3.33319651 L45.8333637,3.33319651 C46.0587476,3.33319651 46.2541228,3.41537942 46.4189421,3.58020131 C46.5838526,3.74547926 46.6662167,3.94040143 46.6662167,4.16606238 L46.6663079,9.99949833 Z" id="Shape" fill-rule="nonzero"></path>
                            <rect id="Rectangle" x="7" y="30" width="7" height="3"></rect>
                            <rect id="Rectangle" x="17" y="30" width="10" height="3"></rect>
                        </g>
                    </g>
                </g>
            </g>
        </g>
    </g>
</svg>