<?xml version="1.0" encoding="UTF-8"?>
<svg width="100px" height="100px" viewBox="0 0 100 100" version="1.1" xmlns="http://www.w3.org/2000/svg" xmlns:xlink="http://www.w3.org/1999/xlink">
    <!-- Generator: sketchtool 52 (66869) - http://www.bohemiancoding.com/sketch -->
    <title>AD8B6A2B-9422-45FC-BF99-FF3F50DF04FA</title>
    <desc>Created with sketchtool.</desc>
    <g id="Websiite" stroke="none" stroke-width="1" fill="none" fill-rule="evenodd">
        <g id="Landing-page" transform="translate(-576.000000, -1809.000000)">
            <g id="Group-3" transform="translate(576.000000, 1809.000000)">
                <g id="Group-15">
                    <path d="M17.9471964,-7.25088215e-16 L82.0528036,4.27780189e-15 C88.2934348,3.13141654e-15 90.5564384,0.649779278 92.8379199,1.86992893 C95.1194014,3.09007857 96.9099214,4.88059859 98.1300711,7.16208008 C99.3502207,9.44356156 100,11.7065652 100,17.9471964 L100,82.0528036 C100,88.2934348 99.3502207,90.5564384 98.1300711,92.8379199 C96.9099214,95.1194014 95.1194014,96.9099214 92.8379199,98.1300711 C90.5564384,99.3502207 88.2934348,100 82.0528036,100 L17.9471964,100 C11.7065652,100 9.44356156,99.3502207 7.16208008,98.1300711 C4.88059859,96.9099214 3.09007857,95.1194014 1.86992893,92.8379199 C0.649779278,90.5564384 2.80864756e-16,88.2934348 -4.83392144e-16,82.0528036 L4.03610582e-15,17.9471964 C3.27184892e-15,11.7065652 0.649779278,9.44356156 1.86992893,7.16208008 C3.09007857,4.88059859 4.88059859,3.09007857 7.16208008,1.86992893 C9.44356156,0.649779278 11.7065652,4.21297134e-16 17.9471964,-7.25088215e-16 Z" id="Rectangle" fill="#D0021B"></path>
                    <g id="handyman-tools" transform="translate(29.000000, 29.000000)" fill="#FFFFFF">
                        <path d="M8.64520789,17.3142631 C9.55284436,17.3142631 10.444474,17.1721078 11.3034559,16.8982567 L16.4088516,22 L22,16.4101426 L16.8969816,11.3028526 C17.8806902,8.22900158 17.0724231,4.8229794 14.7797971,2.53122029 C13.1477314,0.898732171 10.9750776,0 8.66818803,0 C7.37923965,0 6.08680463,0.29207607 4.92717899,0.845007924 C4.75221293,0.92836767 4.62970499,1.09096672 4.59689885,1.28161648 C4.56504361,1.47226624 4.62637683,1.66576862 4.76251437,1.80316957 L10.1341628,7.17591125 C10.5305306,7.57194929 10.7492382,8.0977813 10.7492382,8.65594295 C10.7492382,9.2155309 10.5302137,9.74041204 10.1341628,10.1364501 C9.34507215,10.9278922 7.96547106,10.9278922 7.17495409,10.1343899 L1.80140389,4.76307448 C1.66368151,4.62535658 1.4657353,4.56497623 1.28046779,4.59698891 C1.08933638,4.62979398 0.927207499,4.75229794 0.843845043,4.92725832 C-0.73433619,8.23438986 -0.0579275233,12.1947702 2.53027068,14.7809826 C4.16328729,16.4139461 6.33483171,17.3142631 8.64520789,17.3142631 Z" id="Path"></path>
                        <path d="M34.5673088,26.1033208 C33.6798015,26.1033208 32.8083774,26.2429704 31.9695833,26.5108256 L26.4594299,21 L21,26.4587082 L26.5116999,31.9704617 C25.5538292,34.9691401 26.3418997,38.2919666 28.5776014,40.5297632 C30.1705988,42.1228208 32.2906261,43 34.5414831,43 C35.7998288,43 37.0608036,42.71436 38.1923405,42.1749381 C38.3630685,42.0937465 38.482609,41.9349201 38.5146205,41.7488753 C38.546632,41.5628304 38.4858566,41.3738471 38.3530166,41.2399196 L33.1116361,35.9958666 C32.7256423,35.6103222 32.512387,35.0981189 32.511923,34.5534389 C32.511923,34.007831 32.7251784,33.4956276 33.1125639,33.1086914 C33.8850153,32.3357468 35.2282612,32.3362108 35.9991661,33.1091553 L41.2414745,38.3507339 C41.375397,38.4841975 41.5623627,38.5435834 41.750411,38.5128079 C41.9364488,38.4803312 42.0952692,38.3612501 42.1764578,38.1905157 C43.7164119,34.9637274 43.0568513,31.0994686 40.531345,28.5752587 C38.9383476,26.9818918 36.8198668,26.1033208 34.5673088,26.1033208 Z" id="Path"></path>
                        <path d="M32.5496091,14.8061378 C32.5496091,14.8061378 33.41842,15.597957 34.1347434,15.2280325 C34.9443273,14.8041448 37.2251586,17.1438824 37.9528264,17.6913338 C37.9551837,17.6931734 37.960193,17.6931734 37.9687382,17.6974659 L37.5709445,18.1132285 C37.0455621,18.6536279 37.0460041,19.5360502 37.5696185,20.0773694 C38.0935276,20.6202216 38.9359662,20.6197617 39.4600226,20.0773694 L42.6096649,16.8043123 C43.130038,16.2600803 43.13048,15.3791911 42.6087809,14.8358789 C42.0889971,14.2944064 41.2411072,14.2944064 40.7194081,14.8363388 L40.1949097,15.3816439 C39.7602832,14.7587666 39.0380666,13.697131 39.1297065,13.3454499 C39.5137985,11.8051967 36.4961648,8.16696768 36.4961648,8.16696768 C29.0017311,0.370193181 23.9958655,0.547413506 21.6144071,1.39948147 C20.6585236,1.74165774 20.8357628,1.9584307 21.8286264,2.14040348 C29.053739,3.45269239 29.9499535,7.88626663 28.7251908,9.59684137 C28.2541736,10.2572784 28.9411781,11.0546165 28.9411781,11.0546165 L29.1994493,11.3215201 L17,24.0133163 C17.1654527,24.1171036 17.3261908,24.2351483 17.4679233,24.3830874 L19.5200969,26.5164767 C19.659472,26.661963 19.7733589,26.827992 19.872218,27 L32.0718146,14.307744 L32.5496091,14.8061378 Z" id="Path"></path>
                        <path d="M16.4631477,24.3764156 C15.989104,23.9018312 15.1823299,23.8712679 14.6752458,24.3117207 L0.401348132,37.1106055 C-0.108062752,37.5505928 -0.136449534,38.2994712 0.338524926,38.774521 L4.22642821,42.6602486 C4.70171291,43.1352984 5.44907638,43.1087688 5.88852858,42.6020697 L18.6892609,28.3217183 C19.1271619,27.8150192 19.0993956,27.0109097 18.6239558,26.5364805 L16.4631477,24.3764156 Z" id="Path"></path>
                    </g>
                </g>
            </g>
        </g>
    </g>
</svg>