<?xml version="1.0" encoding="UTF-8"?>
<svg width="100px" height="100px" viewBox="0 0 100 100" version="1.1" xmlns="http://www.w3.org/2000/svg" xmlns:xlink="http://www.w3.org/1999/xlink">
    <!-- Generator: sketchtool 52 (66869) - http://www.bohemiancoding.com/sketch -->
    <title>AFA08FB2-0D1E-461B-963D-45164F55855B</title>
    <desc>Created with sketchtool.</desc>
    <defs>
        <polygon id="path-1" points="4 0 0 13 13 9"></polygon>
        <path d="M20,0 C31.0457,0 40,8.9543 40,20 C40,31.045694 31.0457,40 20,40 C8.954306,40 0,31.045694 0,20 C0,8.9543 8.954306,0 20,0 Z M8.3359,23.1094 C11.355162,27.638296 15.29134,30 20,30 C24.70866,30 28.64484,27.638296 31.6641,23.1094 C32.2768,22.19034 32.02846,20.9486 31.1094,20.3359 C30.19034,19.7232 28.9486,19.97154 28.3359,20.8906 C26.02182,24.361704 23.29134,26 20,26 C16.70866,26 13.97817,24.361704 11.6641,20.8906 C11.051396,19.97154 9.809656,19.7232 8.8906,20.3359 C7.971542,20.9486 7.723194,22.19034 8.3359,23.1094 Z" id="path-3"></path>
    </defs>
    <g id="Websiite" stroke="none" stroke-width="1" fill="none" fill-rule="evenodd">
        <g id="Landing-page" transform="translate(-976.000000, -1809.000000)">
            <g id="Group-4" transform="translate(976.000000, 1809.000000)">
                <g id="Group-3">
                    <g id="Group-16">
                        <path d="M17.9471964,-7.25088215e-16 L82.0528036,4.27780189e-15 C88.2934348,3.13141654e-15 90.5564384,0.649779278 92.8379199,1.86992893 C95.1194014,3.09007857 96.9099214,4.88059859 98.1300711,7.16208008 C99.3502207,9.44356156 100,11.7065652 100,17.9471964 L100,82.0528036 C100,88.2934348 99.3502207,90.5564384 98.1300711,92.8379199 C96.9099214,95.1194014 95.1194014,96.9099214 92.8379199,98.1300711 C90.5564384,99.3502207 88.2934348,100 82.0528036,100 L17.9471964,100 C11.7065652,100 9.44356156,99.3502207 7.16208008,98.1300711 C4.88059859,96.9099214 3.09007857,95.1194014 1.86992893,92.8379199 C0.649779278,90.5564384 2.80864756e-16,88.2934348 -4.83392144e-16,82.0528036 L4.03610582e-15,17.9471964 C3.27184892e-15,11.7065652 0.649779278,9.44356156 1.86992893,7.16208008 C3.09007857,4.88059859 4.88059859,3.09007857 7.16208008,1.86992893 C9.44356156,0.649779278 11.7065652,4.21297134e-16 17.9471964,-7.25088215e-16 Z" id="Rectangle" fill="#043669"></path>
                        <g id="Chat-smile" transform="translate(30.000000, 30.000000)">
                            <g id="Group-3" transform="translate(0.000000, 26.000000)">
                                <mask id="mask-2" fill="white">
                                    <use xlink:href="#path-1"></use>
                                </mask>
                                <g id="Clip-2"></g>
                                <polygon id="Fill-1" fill-opacity="0.3" fill="#FFFFFF" mask="url(#mask-2)" points="-10 23 23 23 23 -10 -10 -10"></polygon>
                            </g>
                            <g id="Group-6">
                                <mask id="mask-4" fill="white">
                                    <use xlink:href="#path-3"></use>
                                </mask>
                                <g id="Clip-5"></g>
                                <polygon id="Fill-4" fill="#FFFFFF" mask="url(#mask-4)" points="-10 50 50 50 50 -10 -10 -10"></polygon>
                            </g>
                        </g>
                    </g>
                </g>
            </g>
        </g>
    </g>
</svg>